<svg xmlns="http://www.w3.org/2000/svg" viewBox="0 0 1035 316.59"><defs><style>.cls-1{fill:#2a2c39;}.cls-2{fill:#ec6708;}.cls-3{fill:#fff;}.cls-4{fill:#42c0ef;}.cls-5{fill:#3275ba;}</style></defs><g id="Capa_2" data-name="Capa 2"><g id="Capa_1-2" data-name="Capa 1"><rect class="cls-1" width="1035" height="313.5"/><path class="cls-2" d="M207.23,187.5c-.9,5.94-5.78,5.2-9.94,5-29.52-1.33-59-1.68-88,5-21.72,5-40.15,14.26-53.5,33.5-13.23,19.08-33,27.69-55.74,31.58V220.45a53.83,53.83,0,0,0,22.37-16c11.51-14.09,28.39-19.78,45.56-23.66,43.43-9.82,87-8,130.65-1.15C202.88,180.27,208.22,181,207.23,187.5Z"/><path class="cls-3" d="M56.71,313.5H34A31.9,31.9,0,0,0,36.48,310a6.7,6.7,0,0,1,1.11-1.27c4.64-4.44,9.16-12,15-11,4.44.77,1.38,10.19,3.89,15.2C56.54,313.15,56.63,313.32,56.71,313.5Z"/><path class="cls-3" d="M131.94,233.91c-12.81-25.38-36.38-25.48-52-1.76A78,78,0,0,0,71.7,248.7,109.36,109.36,0,0,0,65.13,290c0,3.38-.26,6.77,0,10.12.4,4.52,1,9,1.76,13.37H99.68l-.23-.22c-11.3-11.14-10.29-42.47,1.72-52.94,6.56-5.72,12.06-4.1,18.19,5.63-9.93,2.68-12.16,10.61-12.45,19.28-.3,8.44-.48,17.37,9.21,21.48,2.92,1.23,2.33,2.1,1.13,4A13.94,13.94,0,0,1,115,313.5H140.5C147.82,287.13,145.31,260.41,131.94,233.91Z"/><path class="cls-4" d="M46.91,94.4c-5.09.29-12,7.41-15.27-2.79Q21.46,59.43,0,40.85V19.26A122.85,122.85,0,0,1,48.7,86.84C49.44,89.47,53.22,94,46.91,94.4Z"/><path class="cls-3" d="M275.51,97.79c47.93,0,86.94,37,89.84,85,2.81,46.54-33,88.85-79.7,93.88-3.44.37-9.23,3.41-10.62-2.31-2-8.3,2.64-14.68,9.88-15.6,28.82-3.68,53.16-25,60.36-52.8A72.26,72.26,0,0,0,237,126.31c-2.48,1.55-4.79,5.43-7.78,3.87a37.84,37.84,0,0,1-11.06-8.92c-2.48-2.92,1.59-4.19,3.27-5.51C236.18,104,255.35,97.77,275.51,97.79Z"/><path class="cls-3" d="M59.12,170c-2.41,1.56-4.94.79-7.3.74-17.34-.39-34.61,0-51.82,1.11V160.32a417.49,417.49,0,0,1,52.56,6.92C54.86,167.7,57.64,167.19,59.12,170Z"/><path class="cls-3" d="M253.22,200.42c-.27.26-.54.54-.8.81-3.45-1.14-7.13-3.7-10.32-3.18-11.57,1.87-14.76-5.6-19.14-13.91-17-32.34-46.2-48-80.41-55.62-39.84-8.91-79.88-6.44-119.88-1-7.6,1-15.15,2.35-22.67,3.8V124.7c38-12,76.88-19.9,117.38-18,59.19,2.73,106.57,25.63,132.19,82.61C251.17,192.81,252,196.69,253.22,200.42Z"/><path class="cls-3" d="M165.2,80.71c-.66,3.4-.19,8.52-6,5.68-4.15-2-12.85,2.89-11.5-8.24,3.23-26.56-8.24-47.79-30.48-58.41A54.79,54.79,0,0,0,45.43,43.48c-1.41,2.65-1.75,6-4.75,8-1.31-1.92-2.57-3.74-3.8-5.59-8.05-12.13-8.05-12.14,1.45-23.22A74.47,74.47,0,0,1,72.17,0H115.5a73,73,0,0,1,9.2,3.65C154.1,17.68,171.12,50.08,165.2,80.71Z"/><path class="cls-3" d="M249.51,217.44c-8.63-11.83-20.49-11.63-29.15.17-12.92,17.62-12.88,53.44,0,71.26,7.45,10.28,21.65,12.43,29.58-.19,6.82-10.85,9.24-22.75,9.52-35.73C259.16,240.56,257.29,228.1,249.51,217.44Zm-9.95,26.4c-3.44,4.64-3.73,14.89.24,19,1.79,1.84,4.74,2.58,1.34,5.42-2.81,2.34-5.63,2.48-8.25-.15-4.1-4.12-4.41-9.5-4.64-14.26.31-5.73,1-10.76,4.58-14.75,2.56-2.87,5.55-3.71,8.84-.93C246.17,241.94,240.75,242.24,239.56,243.84Z"/><path class="cls-4" d="M270.37,43.09C268.83,40.8,267.91,39.4,267,38c-7.6-10.81-7.58-10.91,4.45-17.66a55.16,55.16,0,0,1,71.93,80c-1.83,2.54-3.44,7.3-7.13,6a36.18,36.18,0,0,1-12.6-8.07c-2.15-2,1.72-3.47,3-5,9.68-11.65,12-24.77,6.65-38.64S316.86,32.84,302,31.07C289.81,29.61,279.52,34.43,270.37,43.09Z"/><path class="cls-4" d="M173.3,55.26c-1.85-6-3.19-11.1-5.05-16-1.25-3.29.07-5.13,2.25-7.28C187,15.74,216.07,11.66,238.13,22.6c22.62,11.22,36.69,36.68,33.59,60.26-.46,3.54-1.38,5.59-5.15,6.31-4.62.88-9.14,2.34-13.75,3.55,2.05-32.34-5-47.43-25.8-55.7C207.61,29.32,189.42,35.31,173.3,55.26Z"/><path class="cls-4" d="M162.27,0a34.45,34.45,0,0,0,12.09,2.14A33.81,33.81,0,0,0,186.29,0Z"/><path class="cls-3" d="M208.47,216.49c-9.11,23.6-8.31,46.91-.31,70.15,1.1,3.19.66,5.15-2.66,6.63-16.81,7.48-33.55,15.12-51.67,23.32,3.61-15.82,6.41-30.37,1-46.38l27.53,10.84C184.91,238.57,190.86,223.77,208.47,216.49Z"/><path class="cls-4" d="M387.33,87.86c-14.36,0-23.19,10.8-23.47,23.11A23.65,23.65,0,0,0,386.8,135.1c13,.34,24.4-10.87,24.35-23.86C411.1,98.77,400.13,87.86,387.33,87.86Zm-.18,37a13.23,13.23,0,0,1-12.92-13.63c.12-7.66,5.78-13.32,13.21-13.23a13.43,13.43,0,0,1-.29,26.86Z"/><path class="cls-5" d="M253.22,200.42c.67.6,1.06,1.23.18,2l-1-1.16C252.68,201,253,200.68,253.22,200.42Z"/></g></g></svg>