<svg xmlns="http://www.w3.org/2000/svg" viewBox="0 0 1035 313.5"><defs><style>.cls-1{fill:#2a2c39;}.cls-2,.cls-6{fill:#ec6708;}.cls-3,.cls-8{fill:#fff;}.cls-4,.cls-7{fill:#42c0ef;}.cls-5{fill:#3275ba;}.cls-6{font-size:73.06px;font-family:ErasITC-Bold, Eras Bold ITC;font-weight:700;}.cls-7{font-family:ErasITC-Demi, Eras Demi ITC;font-weight:300;}.cls-8{font-size:72.57px;font-family:BrushScriptMT, Brush Script MT;}.cls-9{letter-spacing:0.01em;}</style></defs><g id="Capa_2" data-name="Capa 2"><g id="Capa_1-2" data-name="Capa 1"><rect class="cls-1" width="1035" height="313.5"/><path class="cls-2" d="M62.38,206.59C83.85,217,106,217.14,128.16,216.83c20-.28,39.82-2.41,59.12-8.06,7.12-2.08,13.35-5.15,18.32-11.24,6.81-8.34,16.81-11.71,27-14,25.72-5.82,51.54-4.72,77.36-.69,2.54.4,5.71.8,5.12,4.68-.54,3.52-3.42,3.08-5.89,3-17.48-.79-34.91-1-52.13,2.95-12.86,2.95-23.77,8.45-31.67,19.84s-20.06,16.61-33.86,18.84c-42,6.8-83.47,5.73-124.48-6.29-3.55-1-4.95-2.51-4.7-6.16C62.59,215.56,62.38,211.42,62.38,206.59Z"/><path class="cls-3" d="M63.69,230.54c9.79,8.24,19.51,16.53,21.82,30.31.63,3.78,4.11,5.07,6.83,5.39,12,1.43,23.74,4.87,35.86,5.84,23.64,1.88,47.21,2.92,70.58-2.48,6.18-1.43,11.69-3.84,15.17-9.53a3.9,3.9,0,0,1,.66-.75c2.75-2.63,5.43-7.11,8.86-6.51,2.63.45.82,6,2.31,9,3.57,7.14-.37,11.23-5.64,15.28-9.45,7.28-20.52,9.12-31.85,10.2-38.53,3.66-76.46.83-113.54-10.78-12.64-4-12.64-4-12.69-17.25,0-9.44,0-18.88,0-28.32Z"/><path class="cls-3" d="M230.92,248.22a64.54,64.54,0,0,1,3.89-24.46,45.4,45.4,0,0,1,4.85-9.8c9.27-14.05,23.23-14,30.81,1,10.78,21.37,9.63,43-1.88,64a21.92,21.92,0,0,1-3.37,4.33c-7.68,8.17-17.38,7.91-24.46-.81-6.65-8.21-8.9-18.05-9.82-28.28C230.76,252.22,230.92,250.21,230.92,248.22ZM263,234c-3.62-5.76-6.88-6.72-10.77-3.33-7.11,6.2-7.7,24.74-1,31.34,3.33,3.28,8,2.6,10.53-1.5.71-1.14,1.06-1.65-.66-2.38-5.74-2.43-5.63-7.72-5.46-12.71S257.14,235.57,263,234Z"/><path class="cls-4" d="M79.94,147.61c0-36.53,26.42-66.41,63.53-71.72,34-4.87,68.17,18,77.72,52,.44,1.55,2.68,4.25-1.06,4.47-3,.17-7.13,4.39-9-1.65-8.42-26.62-26.73-41.45-54.24-44.59C120.18,82,86.61,115.89,90.56,152.62a60.47,60.47,0,0,0,4.64,18.79c2.9,6.38-3.47,5-5.65,6.75-3,2.38-3.28-1.25-4-2.88A68.66,68.66,0,0,1,79.94,147.61Z"/><path class="cls-3" d="M355.48,134.4a53.17,53.17,0,0,1,53.18,50.33c1.67,27.56-19.5,52.61-47.18,55.59-2,.22-5.46,2-6.29-1.37-1.2-4.92,1.56-8.69,5.85-9.24a42.69,42.69,0,1,0-28.39-78.42c-1.47.92-2.84,3.22-4.61,2.3a22.57,22.57,0,0,1-6.54-5.29c-1.47-1.73.94-2.48,1.93-3.26A51.5,51.5,0,0,1,355.48,134.4Z"/><path class="cls-3" d="M227.36,177.18c-1.43.92-2.93.47-4.33.43-29.89-.67-59.43,2.71-88.78,8a42.41,42.41,0,0,0-14.82,5.67c-3.18,2-6.57,4.36-6.91,8.1-.4,4.34-2.92,4.57-6,4.79A96.55,96.55,0,0,1,67.62,199a119,119,0,0,1,28-15.51c29.39-11.57,60-14.12,91.2-12.39a257.38,257.38,0,0,1,36.61,4.45C224.84,175.8,226.48,175.5,227.36,177.18Z"/><path class="cls-3" d="M341.8,195.65c-2-.68-4.22-2.19-6.1-1.88-6.86,1.11-8.75-3.32-11.34-8.24-10.09-19.14-27.35-28.39-47.61-32.93-23.59-5.27-47.29-3.81-71-.57-10.82,1.48-21.49,3.87-32.12,6.18-.58-1.63.52-1.66,1.18-1.9,28.11-10.21,56.79-18,87-16.65,35,1.61,63.09,15.17,78.27,48.91a63.63,63.63,0,0,1,2.16,6.6Z"/><path class="cls-3" d="M216.44,107c-.78-1.14-1.52-2.22-2.25-3.31-4.77-7.19-4.76-7.19.86-13.75,13-15.15,33.54-19.68,51.13-11.28,17.41,8.31,27.49,27.49,24,45.62-.39,2-.11,5-3.56,3.37-2.46-1.2-7.61,1.71-6.81-4.88,1.91-15.73-4.87-28.3-18-34.58a32.45,32.45,0,0,0-42.5,14C218.42,103.82,218.22,105.79,216.44,107Z"/><path class="cls-4" d="M206.91,32.64a43.25,43.25,0,0,1,41.5,32.76c.79,3.22.1,3.62-3.08,4-5,.61-7-.74-8.65-5.69-4.52-13.13-18-21.4-31.66-20.51-14.5.94-26.66,10.51-29.66,24.63-1.45,6.87-5.08,2.35-7.69,2.43-4.08.12-3.11-2.86-2.54-5.24C169.67,46.29,187.34,32.6,206.91,32.64Z"/><path class="cls-3" d="M346,226.27c-.17,7.69-1.6,14.73-5.64,21.16-4.7,7.47-13.1,6.2-17.51.11-7.65-10.55-7.68-31.76,0-42.19,5.13-7,12.15-7.11,17.26-.1C344.69,211.56,345.79,218.94,346,226.27Zm-18.51.52c.14,2.82.33,6,2.75,8.45,1.55,1.56,3.22,1.47,4.88.08,2-1.68.27-2.11-.79-3.21-2.35-2.42-2.18-8.48-.14-11.23.7-.95,3.92-1.12,1.25-3.37-1.95-1.64-3.72-1.15-5.24.55C328.08,220.42,327.68,223.4,327.49,226.79Z"/><path class="cls-4" d="M352.43,102c-.91-1.35-1.46-2.18-2-3-4.49-6.4-4.48-6.46,2.64-10.45A32.66,32.66,0,0,1,395.63,136c-1.08,1.5-2,4.32-4.22,3.56a21.39,21.39,0,0,1-7.46-4.77c-1.27-1.21,1-2.06,1.75-2.94,5.73-6.9,7.1-14.67,3.94-22.88s-9.68-13-18.48-14C363.94,94,357.85,96.89,352.43,102Z"/><path class="cls-4" d="M295,109.23c-1.1-3.54-1.89-6.58-3-9.49-.74-1.95,0-3,1.33-4.31,9.74-9.6,27-12,40-5.54,13.39,6.64,21.73,21.72,19.89,35.68-.27,2.09-.82,3.31-3.05,3.73-2.74.53-5.41,1.39-8.14,2.11,1.21-19.15-2.94-28.09-15.27-33C315.27,93.87,304.51,97.42,295,109.23Z"/><path class="cls-3" d="M125.18,66.65a19.85,19.85,0,0,1-20.13-19.83,20.28,20.28,0,0,1,19.7-19.92c10.79-.18,20.14,9.12,20.14,20A19.84,19.84,0,0,1,125.18,66.65ZM136,46.83a11.07,11.07,0,1,0-22.14.25A11.07,11.07,0,0,0,136,46.83Z"/><path class="cls-4" d="M295.52,38.25a19.77,19.77,0,1,1,.07,39.53,19.77,19.77,0,0,1-.07-39.53Zm11.3,19.88a11.6,11.6,0,0,0-11.05-11.35,11.27,11.27,0,1,0-.19,22.53A11.62,11.62,0,0,0,306.82,58.13Z"/><path class="cls-3" d="M315.78,204.69c-5.39,14-4.92,27.77-.18,41.53.65,1.89.39,3.05-1.58,3.92-9.95,4.43-19.86,8.95-30.59,13.81,2.14-9.37,3.79-18,.58-27.46l16.3,6.42C301.84,217.76,305.35,209,315.78,204.69Z"/><path class="cls-4" d="M407.79,142.21c.16-7.29,5.39-13.68,13.89-13.68a14,14,0,1,1-.31,28A14,14,0,0,1,407.79,142.21Zm21.74.35a8.09,8.09,0,0,0-7.78-8,7.66,7.66,0,0,0-7.83,7.83,7.84,7.84,0,0,0,7.66,8.07A8.08,8.08,0,0,0,429.53,142.56Z"/><path class="cls-5" d="M342.28,195.17c.39.36.62.73.1,1.17l-.58-.69Z"/><text class="cls-6" transform="translate(467.61 167.58)">SUPER<tspan class="cls-7" x="243.16" y="0">CLEAN</tspan></text><text class="cls-8" transform="translate(579.87 223.5)">Car<tspan class="cls-9" x="94.47" y="0">W</tspan><tspan x="146.03" y="0">ash</tspan></text></g></g></svg>