<svg xmlns="http://www.w3.org/2000/svg" viewBox="0 0 1255.09 443.1"><defs><style>.cls-1{fill:#2a2c39;}.cls-2{fill:#ec6708;}.cls-3{fill:#fff;}.cls-4{fill:#42c0ef;}.cls-5{fill:#3275ba;}</style></defs><g id="Capa_2" data-name="Capa 2"><g id="Capa_1-2" data-name="Capa 1"><rect class="cls-1" x="220.09" y="83.8" width="1035" height="313.5"/><path class="cls-2" d="M.55,303.5C36.82,321,74.22,321.32,111.66,320.8c33.8-.47,67.26-4.06,99.86-13.61,12-3.51,22.54-8.71,30.94-19C254,274.12,270.84,268.43,288,264.55c43.43-9.82,87-8,130.65-1.16,4.29.68,9.64,1.36,8.64,7.9-.9,5.95-5.77,5.2-9.94,5-29.52-1.33-59-1.69-88.05,5-21.72,5-40.15,14.26-53.49,33.5-13.51,19.48-33.88,28.05-57.2,31.83C147.71,358.1,77.66,356.3,8.39,336c-6-1.76-8.35-4.24-7.94-10.41C.9,318.65.55,311.66.55,303.5Z"/><path class="cls-3" d="M2.76,344c16.54,13.93,33,27.93,36.86,51.19,1.07,6.39,7,8.57,11.54,9.11,20.35,2.42,40.09,8.23,60.57,9.86,39.92,3.18,79.73,4.95,119.2-4.18,10.44-2.41,19.76-6.48,25.63-16.1a6.66,6.66,0,0,1,1.12-1.26c4.63-4.45,9.16-12,15-11,4.44.76,1.38,10.19,3.89,15.2,6,12.05-.62,19-9.51,25.82-16,12.28-34.66,15.39-53.8,17.21-65.08,6.2-129.14,1.41-191.77-18.21C.1,414.91.1,414.84,0,392.46,0,376.52,0,360.57,0,344.62Z"/><path class="cls-3" d="M285.21,373.81a109.53,109.53,0,0,1,6.57-41.31A77.33,77.33,0,0,1,300,316c15.67-23.72,39.24-23.62,52,1.76,18.21,36.09,16.27,72.59-3.17,108.05a37.27,37.27,0,0,1-5.69,7.3c-13,13.81-29.36,13.37-41.31-1.36-11.24-13.86-15.05-30.48-16.59-47.77C285,380.58,285.21,377.19,285.21,373.81Zm54.23-24c-6.12-9.73-11.63-11.35-18.19-5.63-12,10.47-13,41.8-1.71,52.94,5.62,5.54,13.48,4.38,17.8-2.53,1.19-1.93,1.78-2.79-1.13-4-9.69-4.11-9.51-13-9.22-21.48C327.29,360.38,329.51,352.45,339.44,349.77Z"/><path class="cls-4" d="M30.22,203.89C30.15,142.18,74.84,91.73,137.51,82.75c57.39-8.22,115.15,30.4,131.28,87.89.74,2.63,4.52,7.18-1.79,7.55-5.09.3-12.05,7.42-15.28-2.78-14.22-45-45.14-70-91.6-75.31C98.19,93,41.48,150.32,48.16,212.34c1.18,11,3.26,21.73,7.83,31.75,4.9,10.77-5.85,8.45-9.54,11.39-5.05,4-5.55-2.11-6.77-4.86A116,116,0,0,1,30.22,203.89Z"/><path class="cls-3" d="M495.6,181.58c47.93,0,86.93,37,89.83,85,2.81,46.55-32.94,88.85-79.7,93.89-3.43.37-9.22,3.4-10.62-2.31-2-8.31,2.64-14.68,9.88-15.6,28.82-3.68,53.16-25,60.36-52.8a72.25,72.25,0,0,0-108.3-79.65c-2.48,1.55-4.8,5.43-7.79,3.87a37.67,37.67,0,0,1-11.05-8.93c-2.48-2.91,1.59-4.18,3.27-5.51C456.26,187.84,475.44,181.56,495.6,181.58Z"/><path class="cls-3" d="M279.21,253.83c-2.42,1.56-4.95.79-7.31.74-50.5-1.14-100.38,4.56-150,13.51a71.59,71.59,0,0,0-25,9.59C91.54,281,85.82,285,85.24,291.35c-.67,7.33-4.92,7.72-10.06,8.08a163.13,163.13,0,0,1-65.77-8.78,200.42,200.42,0,0,1,47.36-26.19c49.64-19.54,101.37-23.85,154-20.93A434.4,434.4,0,0,1,272.64,251C275,251.5,277.73,251,279.21,253.83Z"/><path class="cls-3" d="M472.5,285c-3.45-1.14-7.13-3.7-10.31-3.18-11.58,1.87-14.77-5.61-19.15-13.92-17-32.33-46.2-48-80.41-55.61-39.84-8.91-79.88-6.44-119.88-1-18.29,2.51-36.31,6.54-54.25,10.44-1-2.75.86-2.8,2-3.2,47.49-17.26,95.93-30.48,147-28.13,59.19,2.72,106.57,25.62,132.2,82.61,1.59,3.54,2.44,7.42,3.64,11.14C473,284.48,472.76,284.75,472.5,285Z"/><path class="cls-3" d="M260.76,135.31c-1.31-1.92-2.57-3.74-3.8-5.59-8-12.14-8-12.14,1.45-23.22,21.93-25.58,56.65-33.24,86.37-19.06,29.4,14,46.42,46.43,40.5,77.07-.66,3.4-.19,8.52-6,5.68-4.14-2-12.84,2.88-11.49-8.24,3.22-26.56-8.24-47.79-30.48-58.41a54.8,54.8,0,0,0-71.78,23.74C264.11,129.93,263.76,133.25,260.76,135.31Z"/><path class="cls-4" d="M244.66,9.7c33,.07,62.25,23.34,70.1,55.34,1.33,5.44.17,6.12-5.2,6.77-8.37,1-11.74-1.25-14.62-9.61C287.31,40,264.58,26.06,241.48,27.56c-24.5,1.58-45,17.75-50.1,41.6-2.45,11.61-8.59,4-13,4.1-6.88.2-5.24-4.83-4.27-8.85C181.76,32.75,211.61,9.64,244.66,9.7Z"/><path class="cls-3" d="M479.59,336.75c-.29,13-2.71,24.88-9.53,35.73-7.93,12.62-22.13,10.47-29.58.19-12.92-17.82-13-53.64,0-71.26,8.67-11.81,20.52-12,29.15-.17C477.37,311.9,479.24,324.36,479.59,336.75Zm-31.26.88c.23,4.75.55,10.13,4.64,14.26,2.62,2.63,5.45,2.49,8.25.14,3.4-2.84.45-3.57-1.34-5.41-4-4.09-3.68-14.34-.23-19,1.18-1.59,6.61-1.89,2.1-5.68-3.29-2.78-6.27-1.94-8.84.92C449.33,326.87,448.64,331.9,448.33,337.63Z"/><path class="cls-4" d="M490.46,126.88c-1.55-2.28-2.47-3.68-3.43-5-7.6-10.81-7.57-10.91,4.45-17.66a55.16,55.16,0,0,1,71.94,80c-1.83,2.54-3.45,7.29-7.14,6a36.37,36.37,0,0,1-12.6-8.07c-2.14-2,1.73-3.48,3-5,9.68-11.65,12-24.78,6.66-38.65S537,116.64,522.09,114.87C509.89,113.41,499.61,118.23,490.46,126.88Z"/><path class="cls-4" d="M393.38,139.06c-1.85-6-3.18-11.1-5.05-16-1.24-3.29.08-5.13,2.26-7.28,16.45-16.21,45.56-20.29,67.62-9.35,22.62,11.22,36.7,36.68,33.6,60.26-.47,3.53-1.39,5.59-5.15,6.31-4.63.88-9.15,2.33-13.76,3.55,2.05-32.34-5-47.43-25.79-55.7C427.7,113.11,409.51,119.11,393.38,139.06Z"/><path class="cls-3" d="M106.62,67.14a33.52,33.52,0,0,1-34-33.48C72.68,15.61,87.83.3,105.91,0s34,15.41,34,33.79A33.49,33.49,0,0,1,106.62,67.14ZM125,33.67a18.7,18.7,0,1,0-37.39.42c.17,10.56,8.22,18.33,18.89,18.24A18.27,18.27,0,0,0,125,33.67Z"/><path class="cls-4" d="M394.33,19.19a33.38,33.38,0,1,1,.12,66.75c-19,0-33.54-14.7-33.42-33.71A33.07,33.07,0,0,1,394.33,19.19Zm19.08,33.57c.09-10-8.59-18.92-18.65-19.17S375.81,41.86,375.44,52c-.37,10.39,8.59,19.64,19,19.61C404.43,71.61,413.31,62.77,413.41,52.76Z"/><path class="cls-3" d="M428.56,300.29c-9.11,23.6-8.31,46.9-.32,70.14,1.1,3.2.67,5.16-2.66,6.64-16.81,7.48-33.54,15.11-51.67,23.32,3.61-15.82,6.41-30.37,1-46.38l27.53,10.84C405,322.37,410.94,307.57,428.56,300.29Z"/><path class="cls-4" d="M584,194.76c.28-12.3,9.1-23.09,23.46-23.1,12.8,0,23.77,10.9,23.82,23.37.06,13-11.38,24.21-24.35,23.87A23.63,23.63,0,0,1,584,194.76Zm36.72.6a13.67,13.67,0,0,0-13.14-13.57c-7.44-.09-13.09,5.57-13.21,13.22a13.22,13.22,0,0,0,12.92,13.63A13.63,13.63,0,0,0,620.67,195.36Z"/><path class="cls-5" d="M473.3,284.21c.67.61,1.06,1.23.18,2-.32-.39-.65-.77-1-1.16C472.76,284.75,473,284.48,473.3,284.21Z"/></g></g></svg>