<svg xmlns="http://www.w3.org/2000/svg" viewBox="0 0 373.73 262.34"><defs><style>.cls-1{fill:#ec6708;}.cls-2{fill:#fff;}.cls-3{fill:#42c0ef;}.cls-4{fill:#3275ba;}</style></defs><g id="Capa_2" data-name="Capa 2"><g id="Capa_1-2" data-name="Capa 1"><path class="cls-1" d="M.33,179.7C21.8,190.07,44,190.24,66.11,189.94c20-.28,39.82-2.41,59.12-8.06,7.12-2.08,13.35-5.16,18.32-11.24,6.81-8.34,16.81-11.71,27-14,25.72-5.82,51.54-4.71,77.36-.68,2.54.39,5.71.8,5.12,4.67-.54,3.52-3.42,3.08-5.89,3-17.48-.78-34.91-1-52.13,3-12.86,2.95-23.77,8.44-31.67,19.83S143.25,203,129.45,205.23C87.45,212,46,211,5,198.93c-3.55-1-4.95-2.51-4.7-6.16C.54,188.66.33,184.52.33,179.7Z"/><path class="cls-2" d="M1.64,203.64c9.79,8.25,19.51,16.54,21.82,30.31.63,3.78,4.11,5.07,6.83,5.39,12.05,1.44,23.74,4.88,35.86,5.84,23.64,1.88,47.21,2.93,70.58-2.47,6.18-1.43,11.69-3.84,15.17-9.53a3.9,3.9,0,0,1,.66-.75c2.75-2.63,5.43-7.11,8.86-6.52,2.63.46.82,6,2.31,9,3.57,7.14-.37,11.24-5.64,15.29-9.45,7.27-20.52,9.11-31.85,10.19-38.53,3.67-76.46.84-113.54-10.78-12.64-4-12.64-4-12.69-17.24,0-9.45,0-18.89,0-28.33Z"/><path class="cls-2" d="M168.87,221.32a64.54,64.54,0,0,1,3.89-24.46,45.63,45.63,0,0,1,4.85-9.8c9.27-14,23.23-14,30.81,1,10.78,21.37,9.63,43-1.88,64a22.15,22.15,0,0,1-3.37,4.32c-7.68,8.18-17.38,7.92-24.46-.81-6.65-8.2-8.9-18-9.82-28.28C168.71,225.33,168.87,223.32,168.87,221.32ZM201,207.09c-3.62-5.76-6.88-6.72-10.77-3.34-7.1,6.2-7.7,24.75-1,31.35,3.33,3.28,8,2.59,10.54-1.5.7-1.14,1.05-1.65-.67-2.38-5.74-2.43-5.63-7.72-5.46-12.72S195.09,208.67,201,207.09Z"/><path class="cls-3" d="M17.89,120.72c0-36.54,26.42-66.41,63.53-71.73,34-4.86,68.17,18,77.72,52,.44,1.56,2.68,4.25-1.06,4.47-3,.18-7.13,4.39-9-1.65-8.42-26.62-26.73-41.44-54.24-44.59C58.13,55.07,24.56,89,28.51,125.72a60.53,60.53,0,0,0,4.64,18.8c2.9,6.37-3.47,5-5.65,6.74-3,2.39-3.28-1.25-4-2.88A68.62,68.62,0,0,1,17.89,120.72Z"/><path class="cls-2" d="M293.43,107.51a53.17,53.17,0,0,1,53.18,50.33c1.67,27.55-19.5,52.6-47.18,55.58-2,.22-5.46,2-6.29-1.37-1.2-4.91,1.56-8.69,5.85-9.23A42.69,42.69,0,1,0,270.6,124.4c-1.47.92-2.84,3.21-4.61,2.29a22.38,22.38,0,0,1-6.54-5.28c-1.47-1.73.94-2.48,1.93-3.27A51.49,51.49,0,0,1,293.43,107.51Z"/><path class="cls-2" d="M165.31,150.28c-1.43.93-2.93.47-4.33.44-29.89-.67-59.43,2.7-88.78,8a42.23,42.23,0,0,0-14.82,5.68c-3.18,2-6.57,4.36-6.91,8.1-.4,4.34-2.92,4.57-6,4.78a96.55,96.55,0,0,1-38.94-5.2,118.55,118.55,0,0,1,28-15.5c29.39-11.57,60-14.12,91.2-12.4a258.83,258.83,0,0,1,36.61,4.45C162.79,148.91,164.43,148.6,165.31,150.28Z"/><path class="cls-2" d="M279.75,168.76c-2-.68-4.22-2.19-6.1-1.89-6.86,1.11-8.75-3.31-11.34-8.23-10.09-19.15-27.35-28.4-47.61-32.93-23.59-5.28-47.29-3.82-71-.57-10.82,1.48-21.49,3.87-32.12,6.18-.58-1.64.52-1.66,1.18-1.9,28.11-10.22,56.79-18,87-16.65,35,1.61,63.1,15.17,78.27,48.9a64.43,64.43,0,0,1,2.16,6.6Z"/><path class="cls-2" d="M154.39,80.11c-.78-1.14-1.52-2.21-2.25-3.31-4.77-7.18-4.76-7.18.86-13.74,13-15.15,33.54-19.69,51.13-11.29,17.41,8.31,27.49,27.49,24,45.63-.39,2-.11,5-3.56,3.36-2.46-1.19-7.61,1.71-6.81-4.88,1.91-15.72-4.87-28.29-18-34.58a32.45,32.45,0,0,0-42.5,14.06C156.37,76.93,156.17,78.89,154.39,80.11Z"/><path class="cls-3" d="M144.86,5.75a43.23,43.23,0,0,1,41.5,32.76c.79,3.22.1,3.62-3.08,4-5,.6-6.95-.74-8.65-5.69-4.52-13.14-18-21.4-31.66-20.52-14.5.94-26.66,10.52-29.66,24.64-1.45,6.87-5.08,2.35-7.69,2.42-4.08.12-3.11-2.86-2.54-5.24C107.62,19.39,125.29,5.71,144.86,5.75Z"/><path class="cls-2" d="M284,199.38c-.17,7.69-1.6,14.73-5.64,21.15-4.7,7.47-13.1,6.2-17.51.12-7.65-10.55-7.68-31.76,0-42.19,5.13-7,12.15-7.11,17.26-.11C282.64,184.67,283.74,192,284,199.38Zm-18.51.52c.14,2.81.33,6,2.75,8.44,1.55,1.56,3.22,1.48,4.88.09,2-1.68.27-2.12-.79-3.21-2.35-2.42-2.18-8.49-.14-11.24.7-.94,3.92-1.12,1.25-3.37-1.95-1.64-3.72-1.14-5.24.55C266,193.53,265.63,196.51,265.44,199.9Z"/><path class="cls-3" d="M290.38,75.12c-.91-1.35-1.46-2.18-2-3-4.49-6.4-4.48-6.46,2.64-10.45a32.66,32.66,0,0,1,42.59,47.39c-1.08,1.5-2,4.31-4.22,3.56a21.41,21.41,0,0,1-7.46-4.78c-1.27-1.2,1-2.06,1.75-2.94,5.73-6.89,7.1-14.66,3.94-22.88s-9.68-13-18.48-14C301.89,67.15,295.8,70,290.38,75.12Z"/><path class="cls-3" d="M232.91,82.33c-1.1-3.53-1.89-6.57-3-9.49-.74-2,0-3,1.33-4.31,9.74-9.6,27-12,40-5.53,13.39,6.64,21.73,21.71,19.89,35.67-.27,2.1-.82,3.31-3.05,3.74-2.74.52-5.41,1.38-8.14,2.1,1.21-19.15-2.94-28.08-15.27-33C253.22,67,242.46,70.52,232.91,82.33Z"/><path class="cls-2" d="M63.13,39.75A19.84,19.84,0,0,1,43,19.93,20.29,20.29,0,0,1,62.7,0C73.49-.17,82.84,9.12,82.84,20A19.83,19.83,0,0,1,63.13,39.75ZM74,19.93a11.07,11.07,0,1,0-22.14.25A11.07,11.07,0,0,0,74,19.93Z"/><path class="cls-3" d="M233.47,11.36a19.76,19.76,0,1,1,.07,39.52,19.5,19.5,0,0,1-19.79-20A19.59,19.59,0,0,1,233.47,11.36Zm11.3,19.88a11.59,11.59,0,0,0-11.05-11.35A11.48,11.48,0,0,0,222.29,30.8a11.47,11.47,0,0,0,11.24,11.62A11.63,11.63,0,0,0,244.77,31.24Z"/><path class="cls-2" d="M253.73,177.79c-5.39,14-4.92,27.77-.18,41.53.65,1.89.39,3.05-1.58,3.93-9.95,4.43-19.86,8.95-30.59,13.81,2.14-9.37,3.8-18,.58-27.46l16.3,6.42C239.79,190.87,243.3,182.1,253.73,177.79Z"/><path class="cls-3" d="M345.74,115.31c.16-7.28,5.39-13.67,13.89-13.67a14,14,0,1,1-.31,28A14,14,0,0,1,345.74,115.31Zm21.74.36a8.1,8.1,0,0,0-7.78-8,7.66,7.66,0,0,0-7.82,7.83,7.82,7.82,0,0,0,7.65,8.07A8.06,8.06,0,0,0,367.48,115.67Z"/><path class="cls-4" d="M280.23,168.27c.39.36.62.73.1,1.17l-.58-.68Z"/></g></g></svg>